<?xml version="1.0" encoding="UTF-8"?>
<svg width="200px" height="200px" viewBox="0 0 200 200" version="1.1" xmlns="http://www.w3.org/2000/svg" xmlns:xlink="http://www.w3.org/1999/xlink">
    <title>車両メンテナンス予約システム</title>
    <g stroke="none" stroke-width="1" fill="none" fill-rule="evenodd">
        <circle fill="#3B82F6" cx="100" cy="100" r="100"></circle>
        <g transform="translate(40.000000, 40.000000)" fill="#FFFFFF" fill-rule="nonzero">
            <!-- Car icon -->
            <path d="M110,60 L10,60 C4.5,60 0,64.5 0,70 L0,90 C0,95.5 4.5,100 10,100 L20,100 C20,111 29,120 40,120 C51,120 60,111 60,100 L60,100 L80,100 C80,111 89,120 100,120 C111,120 120,111 120,100 L110,100 C110,95.5 105.5,90 100,90 L100,60 Z M40,110 C34.5,110 30,105.5 30,100 C30,94.5 34.5,90 40,90 C45.5,90 50,94.5 50,100 C50,105.5 45.5,110 40,110 Z M100,110 C94.5,110 90,105.5 90,100 C90,94.5 94.5,90 100,90 C105.5,90 110,94.5 110,100 C110,105.5 105.5,110 100,110 Z M10,50 L110,50 L100,30 C100,25 95,20 90,20 L30,20 C25,20 20,25 20,30 L10,50 Z"></path>
            <!-- Wrench icon -->
            <path d="M95,15 C87.5,7.5 75,7.5 67.5,15 L42.5,40 L55,52.5 L80,27.5 C87.5,20 87.5,7.5 80,0 L95,15 Z"></path>
        </g>
    </g>
</svg>